<mxfile host="www.draw.io" modified="2020-07-23T06:58:07.762Z" agent="5.0 (Macintosh; Intel Mac OS X 10_15_3) AppleWebKit/537.36 (KHTML, like Gecko) Chrome/83.0.4103.116 Safari/537.36" etag="5ocHOAqywpXq_G3BF30m" version="13.4.4" type="github">
  <diagram name="Page-1" id="9361dd3d-8414-5efd-6122-117bd74ce7a7">
    <mxGraphModel dx="2218" dy="1471" grid="1" gridSize="10" guides="1" tooltips="1" connect="1" arrows="1" fold="1" page="0" pageScale="1.5" pageWidth="826" pageHeight="1169" background="#ffffff" math="0" shadow="0">
      <root>
        <mxCell id="0" />
        <mxCell id="1" parent="0" />
        <mxCell id="4" value="runc create" style="shadow=1;fillColor=#A2C4C9;strokeColor=none" parent="1" vertex="1">
          <mxGeometry x="152.5" y="-10" width="105" height="50" as="geometry" />
        </mxCell>
        <mxCell id="6" value="" style="fillColor=#CC4125;strokeColor=#660000" parent="1" vertex="1">
          <mxGeometry x="343" y="130" width="10" height="380" as="geometry" />
        </mxCell>
        <mxCell id="7" value="runc:[0:PARENT]" style="shadow=1;fillColor=#A2C4C9;strokeColor=none" parent="1" vertex="1">
          <mxGeometry x="295.5" y="60" width="105" height="50" as="geometry" />
        </mxCell>
        <mxCell id="8" value="" style="edgeStyle=none;endArrow=none;dashed=1" parent="1" source="7" target="6" edge="1">
          <mxGeometry x="272.3350694444445" y="165" width="100" height="100" as="geometry">
            <mxPoint x="347.2588734567901" y="110" as="sourcePoint" />
            <mxPoint x="347.5761959876544" y="165" as="targetPoint" />
          </mxGeometry>
        </mxCell>
        <mxCell id="11" value="" style="edgeStyle=none;verticalLabelPosition=top;verticalAlign=bottom;endArrow=none;startArrow=classic;dashed=1" parent="1" edge="1">
          <mxGeometry x="220" y="302.2588734567901" width="100" height="100" as="geometry">
            <mxPoint x="210" y="390" as="sourcePoint" />
            <mxPoint x="340" y="389.7588734567901" as="targetPoint" />
          </mxGeometry>
        </mxCell>
        <mxCell id="13" value="&lt;&lt;create&gt;&gt;" style="edgeStyle=none;verticalLabelPosition=top;verticalAlign=bottom;dashed=1;entryX=0;entryY=0.5;entryDx=0;entryDy=0;exitX=1.2;exitY=0.1;exitDx=0;exitDy=0;exitPerimeter=0;" parent="1" source="6" edge="1">
          <mxGeometry x="385.45524691358025" y="117.91550925925924" width="100" height="100" as="geometry">
            <mxPoint x="360" y="168" as="sourcePoint" />
            <mxPoint x="462.28395061728406" y="167.5" as="targetPoint" />
          </mxGeometry>
        </mxCell>
        <mxCell id="15" value="runc:[1:CHILD]" style="shadow=1;fillColor=#A2C4C9;strokeColor=none" parent="1" vertex="1">
          <mxGeometry x="462.2839506172839" y="138.49999999999997" width="105" height="50" as="geometry" />
        </mxCell>
        <mxCell id="22" value="runc:[2:INIT]" style="shadow=1;fillColor=#A2C4C9;strokeColor=none" parent="1" vertex="1">
          <mxGeometry x="620" y="275" width="105" height="50" as="geometry" />
        </mxCell>
        <mxCell id="23" value="" style="edgeStyle=none;endArrow=none;dashed=1" parent="1" source="WARIsVjhKI-jogwmUTJz-55" edge="1">
          <mxGeometry x="614.4878472222224" y="174.99999999999997" width="100" height="100" as="geometry">
            <mxPoint x="674.6527777777778" y="110" as="sourcePoint" />
            <mxPoint x="675" y="900" as="targetPoint" />
          </mxGeometry>
        </mxCell>
        <mxCell id="27" value="&lt;&lt;create&gt;&gt;" style="edgeStyle=elbowEdgeStyle;elbow=vertical;verticalLabelPosition=top;verticalAlign=bottom;entryX=0;entryY=0.5;entryDx=0;entryDy=0;dashed=1;" parent="1" source="17" target="22" edge="1">
          <mxGeometry x="540" y="270" width="100" height="100" as="geometry">
            <mxPoint x="540" y="370" as="sourcePoint" />
            <mxPoint x="640" y="270" as="targetPoint" />
            <Array as="points" />
          </mxGeometry>
        </mxCell>
        <mxCell id="33" value="" style="edgeStyle=elbowEdgeStyle;elbow=horizontal;endArrow=none;dashed=1" parent="1" source="M7p2KPYp7pXhIXxXzcYj-115" edge="1">
          <mxGeometry x="230.00000000000003" y="310" width="100" height="100" as="geometry">
            <mxPoint x="230.00000000000003" y="410" as="sourcePoint" />
            <mxPoint x="205" y="130" as="targetPoint" />
          </mxGeometry>
        </mxCell>
        <mxCell id="40" value="struct nlconfig_t {&#xa;char *data;&#xa;&#xa;   /* Process settings. */&#xa;   uint32_t cloneflags;&#xa;   char *oom_score_adj;&#xa;   size_t oom_score_adj_len;&#xa;&#xa;   /* User namespace settings. */&#xa;   char *uidmap;&#xa;   size_t uidmap_len;&#xa;   char *gidmap;&#xa;   size_t gidmap_len;&#xa;   char *namespaces;&#xa;   size_t namespaces_len;&#xa;   uint8_t is_setgroup;&#xa;&#xa;   /* Rootless container settings. */&#xa;   uint8_t is_rootless_euid;  /* boolean */&#xa;   char *uidmappath;&#xa;   size_t uidmappath_len;&#xa;   char *gidmappath;&#xa;   size_t gidmappath_len;&#xa;};" style="shape=note;align=left" parent="1" vertex="1">
          <mxGeometry x="-120" y="60" width="220" height="350" as="geometry" />
        </mxCell>
        <mxCell id="41" value="" style="edgeStyle=none;endArrow=none;dashed=1;entryX=0.75;entryY=0;entryDx=0;entryDy=0;" parent="1" source="40" edge="1">
          <mxGeometry x="1030" y="180" width="100" height="100" as="geometry">
            <mxPoint x="1030" y="280" as="sourcePoint" />
            <mxPoint x="207.5" y="130" as="targetPoint" />
          </mxGeometry>
        </mxCell>
        <mxCell id="44" value="" style="edgeStyle=none;dashed=1;endArrow=none" parent="1" edge="1">
          <mxGeometry x="50" y="300" width="100" height="100" as="geometry">
            <mxPoint x="205" y="130" as="sourcePoint" />
            <mxPoint x="205" y="840" as="targetPoint" />
          </mxGeometry>
        </mxCell>
        <mxCell id="52" value="" style="edgeStyle=none;endArrow=none;dashed=1" parent="1" source="6" edge="1">
          <mxGeometry x="376.5711805555559" y="339.6971450617284" width="100" height="100" as="geometry">
            <mxPoint x="451.7361111111112" y="284.6971450617284" as="sourcePoint" />
            <mxPoint x="348" y="610" as="targetPoint" />
          </mxGeometry>
        </mxCell>
        <mxCell id="M7p2KPYp7pXhIXxXzcYj-97" value="" style="endArrow=classic;html=1;fillColor=#aa00ff;strokeColor=#7700CC;" parent="1" edge="1">
          <mxGeometry width="50" height="50" relative="1" as="geometry">
            <mxPoint x="40" y="535" as="sourcePoint" />
            <mxPoint x="100" y="535" as="targetPoint" />
          </mxGeometry>
        </mxCell>
        <mxCell id="M7p2KPYp7pXhIXxXzcYj-98" value="INITPIPE" style="text;html=1;strokeColor=none;fillColor=none;align=center;verticalAlign=middle;whiteSpace=wrap;rounded=0;" parent="1" vertex="1">
          <mxGeometry x="50" y="510" width="40" height="20" as="geometry" />
        </mxCell>
        <mxCell id="M7p2KPYp7pXhIXxXzcYj-102" value="" style="endArrow=classic;html=1;fillColor=#60a917;strokeColor=#2D7600;" parent="1" edge="1">
          <mxGeometry width="50" height="50" relative="1" as="geometry">
            <mxPoint x="40" y="578" as="sourcePoint" />
            <mxPoint x="100" y="578" as="targetPoint" />
          </mxGeometry>
        </mxCell>
        <mxCell id="M7p2KPYp7pXhIXxXzcYj-103" value="EXECFIFO" style="text;html=1;strokeColor=none;fillColor=none;align=center;verticalAlign=middle;whiteSpace=wrap;rounded=0;" parent="1" vertex="1">
          <mxGeometry x="50" y="553" width="40" height="20" as="geometry" />
        </mxCell>
        <mxCell id="M7p2KPYp7pXhIXxXzcYj-104" value="" style="endArrow=classic;html=1;fillColor=#e51400;strokeColor=#B20000;" parent="1" edge="1">
          <mxGeometry width="50" height="50" relative="1" as="geometry">
            <mxPoint x="40" y="621" as="sourcePoint" />
            <mxPoint x="100" y="621" as="targetPoint" />
          </mxGeometry>
        </mxCell>
        <mxCell id="M7p2KPYp7pXhIXxXzcYj-105" value="children_pipe" style="text;html=1;strokeColor=none;fillColor=none;align=center;verticalAlign=middle;whiteSpace=wrap;rounded=0;" parent="1" vertex="1">
          <mxGeometry x="50" y="596" width="40" height="20" as="geometry" />
        </mxCell>
        <mxCell id="M7p2KPYp7pXhIXxXzcYj-106" value="" style="endArrow=classic;html=1;fillColor=#ffe6cc;strokeColor=#d79b00;" parent="1" edge="1">
          <mxGeometry width="50" height="50" relative="1" as="geometry">
            <mxPoint x="40" y="664" as="sourcePoint" />
            <mxPoint x="100" y="664" as="targetPoint" />
          </mxGeometry>
        </mxCell>
        <mxCell id="M7p2KPYp7pXhIXxXzcYj-107" value="grandchild_pipe" style="text;html=1;strokeColor=none;fillColor=none;align=center;verticalAlign=middle;whiteSpace=wrap;rounded=0;" parent="1" vertex="1">
          <mxGeometry x="50" y="639" width="40" height="20" as="geometry" />
        </mxCell>
        <mxCell id="M7p2KPYp7pXhIXxXzcYj-113" value="" style="endArrow=classic;html=1;fillColor=#aa00ff;strokeColor=#7700CC;entryX=0.25;entryY=0;entryDx=0;entryDy=0;exitX=0.75;exitY=0;exitDx=0;exitDy=0;" parent="1" target="6" edge="1">
          <mxGeometry width="50" height="50" relative="1" as="geometry">
            <mxPoint x="207.5" y="130" as="sourcePoint" />
            <mxPoint x="370" y="180" as="targetPoint" />
          </mxGeometry>
        </mxCell>
        <mxCell id="M7p2KPYp7pXhIXxXzcYj-115" value="" style="fillColor=#CC4125;strokeColor=#660000" parent="1" vertex="1">
          <mxGeometry x="200" y="60" width="10" height="50" as="geometry" />
        </mxCell>
        <mxCell id="M7p2KPYp7pXhIXxXzcYj-116" value="" style="edgeStyle=elbowEdgeStyle;elbow=horizontal;endArrow=none;dashed=1" parent="1" source="4" target="M7p2KPYp7pXhIXxXzcYj-115" edge="1">
          <mxGeometry x="230.00000000000003" y="310" width="100" height="100" as="geometry">
            <mxPoint x="205" y="10" as="sourcePoint" />
            <mxPoint x="205" y="130" as="targetPoint" />
          </mxGeometry>
        </mxCell>
        <mxCell id="M7p2KPYp7pXhIXxXzcYj-118" value="&lt;&lt;create&gt;&gt;" style="edgeStyle=none;verticalLabelPosition=top;verticalAlign=bottom;dashed=1;entryX=0;entryY=0.5;entryDx=0;entryDy=0;exitX=1;exitY=0.5;exitDx=0;exitDy=0;" parent="1" source="M7p2KPYp7pXhIXxXzcYj-115" target="7" edge="1">
          <mxGeometry x="272.95524691358025" y="-7.290123456790184" width="100" height="100" as="geometry">
            <mxPoint x="240" y="80" as="sourcePoint" />
            <mxPoint x="290" y="80" as="targetPoint" />
          </mxGeometry>
        </mxCell>
        <mxCell id="M7p2KPYp7pXhIXxXzcYj-135" value="" style="endArrow=classic;html=1;fillColor=#e51400;strokeColor=#B20000;entryX=1.3;entryY=0.232;entryDx=0;entryDy=0;entryPerimeter=0;exitX=-0.5;exitY=0.051;exitDx=0;exitDy=0;exitPerimeter=0;" parent="1" source="17" target="6" edge="1">
          <mxGeometry width="50" height="50" relative="1" as="geometry">
            <mxPoint x="490" y="253" as="sourcePoint" />
            <mxPoint x="490" y="230" as="targetPoint" />
          </mxGeometry>
        </mxCell>
        <mxCell id="M7p2KPYp7pXhIXxXzcYj-137" value="USERMAP_PLS" style="text;html=1;strokeColor=none;fillColor=none;align=center;verticalAlign=middle;whiteSpace=wrap;rounded=0;" parent="1" vertex="1">
          <mxGeometry x="411" y="200" width="40" height="20" as="geometry" />
        </mxCell>
        <mxCell id="M7p2KPYp7pXhIXxXzcYj-138" value="" style="endArrow=classic;html=1;fillColor=#e51400;strokeColor=#B20000;exitX=1.3;exitY=0.395;exitDx=0;exitDy=0;exitPerimeter=0;" parent="1" source="6" edge="1">
          <mxGeometry width="50" height="50" relative="1" as="geometry">
            <mxPoint x="450" y="310" as="sourcePoint" />
            <mxPoint x="509" y="280" as="targetPoint" />
          </mxGeometry>
        </mxCell>
        <mxCell id="M7p2KPYp7pXhIXxXzcYj-140" value="USERMAP_ACK" style="text;html=1;strokeColor=none;fillColor=none;align=center;verticalAlign=middle;whiteSpace=wrap;rounded=0;" parent="1" vertex="1">
          <mxGeometry x="382" y="250" width="98" height="30" as="geometry" />
        </mxCell>
        <mxCell id="M7p2KPYp7pXhIXxXzcYj-141" value="" style="endArrow=classic;html=1;fillColor=#e51400;strokeColor=#B20000;entryX=1;entryY=0.542;entryDx=0;entryDy=0;entryPerimeter=0;" parent="1" target="6" edge="1">
          <mxGeometry width="50" height="50" relative="1" as="geometry">
            <mxPoint x="506" y="336" as="sourcePoint" />
            <mxPoint x="500" y="360" as="targetPoint" />
          </mxGeometry>
        </mxCell>
        <mxCell id="M7p2KPYp7pXhIXxXzcYj-142" value="RECVPID_PLS" style="text;html=1;strokeColor=none;fillColor=none;align=center;verticalAlign=middle;whiteSpace=wrap;rounded=0;" parent="1" vertex="1">
          <mxGeometry x="411.5" y="313" width="40" height="20" as="geometry" />
        </mxCell>
        <mxCell id="M7p2KPYp7pXhIXxXzcYj-143" value="" style="edgeStyle=none;endArrow=none;dashed=1" parent="1" source="15" edge="1">
          <mxGeometry x="543.0711805555559" y="239.6971450617284" width="100" height="100" as="geometry">
            <mxPoint x="514.5" y="410" as="sourcePoint" />
            <mxPoint x="515" y="470" as="targetPoint" />
          </mxGeometry>
        </mxCell>
        <mxCell id="17" value="" style="fillColor=#CC4125;strokeColor=#660000" parent="1" vertex="1">
          <mxGeometry x="510" y="203" width="10" height="257" as="geometry" />
        </mxCell>
        <mxCell id="M7p2KPYp7pXhIXxXzcYj-147" value="" style="endArrow=classic;html=1;fillColor=#e51400;strokeColor=#B20000;exitX=-0.378;exitY=0.612;exitDx=0;exitDy=0;exitPerimeter=0;entryX=1;entryY=0.542;entryDx=0;entryDy=0;entryPerimeter=0;" parent="1" edge="1">
          <mxGeometry width="50" height="50" relative="1" as="geometry">
            <mxPoint x="507.5" y="366" as="sourcePoint" />
            <mxPoint x="354.2800000000002" y="366.15599999999995" as="targetPoint" />
          </mxGeometry>
        </mxCell>
        <mxCell id="M7p2KPYp7pXhIXxXzcYj-148" value="pid of runc:[2:INIT]" style="text;html=1;strokeColor=none;fillColor=none;align=center;verticalAlign=middle;whiteSpace=wrap;rounded=0;" parent="1" vertex="1">
          <mxGeometry x="372" y="346" width="119" height="20" as="geometry" />
        </mxCell>
        <mxCell id="M7p2KPYp7pXhIXxXzcYj-149" value="RECVPID_ACK" style="text;html=1;strokeColor=none;fillColor=none;align=center;verticalAlign=middle;whiteSpace=wrap;rounded=0;" parent="1" vertex="1">
          <mxGeometry x="411.5" y="399" width="40" height="20" as="geometry" />
        </mxCell>
        <mxCell id="M7p2KPYp7pXhIXxXzcYj-150" value="" style="endArrow=classic;html=1;fillColor=#e51400;strokeColor=#B20000;exitX=1.3;exitY=0.395;exitDx=0;exitDy=0;exitPerimeter=0;entryX=-0.078;entryY=0.359;entryDx=0;entryDy=0;entryPerimeter=0;" parent="1" edge="1">
          <mxGeometry width="50" height="50" relative="1" as="geometry">
            <mxPoint x="357" y="418.5" as="sourcePoint" />
            <mxPoint x="510.2199999999998" y="419.3030000000001" as="targetPoint" />
          </mxGeometry>
        </mxCell>
        <mxCell id="M7p2KPYp7pXhIXxXzcYj-151" value="" style="endArrow=classic;html=1;fillColor=#e51400;strokeColor=#B20000;entryX=1.1;entryY=0.839;entryDx=0;entryDy=0;entryPerimeter=0;" parent="1" target="6" edge="1">
          <mxGeometry width="50" height="50" relative="1" as="geometry">
            <mxPoint x="507" y="450" as="sourcePoint" />
            <mxPoint x="553.2199999999998" y="430.8030000000001" as="targetPoint" />
          </mxGeometry>
        </mxCell>
        <mxCell id="M7p2KPYp7pXhIXxXzcYj-152" value="CHILDREADY" style="text;html=1;strokeColor=none;fillColor=none;align=center;verticalAlign=middle;whiteSpace=wrap;rounded=0;" parent="1" vertex="1">
          <mxGeometry x="411.5" y="429" width="40" height="20" as="geometry" />
        </mxCell>
        <mxCell id="M7p2KPYp7pXhIXxXzcYj-155" value="{&lt;br&gt;&amp;nbsp; &amp;nbsp; &quot;child&quot;: pid(runc2),&lt;br&gt;&amp;nbsp; &amp;nbsp; &quot;first_child&quot;: pid(runc1)&lt;br&gt;}" style="text;html=1;strokeColor=none;fillColor=none;align=left;verticalAlign=middle;whiteSpace=wrap;rounded=0;" parent="1" vertex="1">
          <mxGeometry x="208" y="331.5" width="140" height="56" as="geometry" />
        </mxCell>
        <mxCell id="M7p2KPYp7pXhIXxXzcYj-156" value="" style="endArrow=classic;html=1;fillColor=#ffe6cc;strokeColor=#d79b00;" parent="1" edge="1">
          <mxGeometry width="50" height="50" relative="1" as="geometry">
            <mxPoint x="348" y="529.5" as="sourcePoint" />
            <mxPoint x="670" y="530" as="targetPoint" />
          </mxGeometry>
        </mxCell>
        <mxCell id="M7p2KPYp7pXhIXxXzcYj-157" value="GRANDCHILD" style="text;html=1;strokeColor=none;fillColor=none;align=center;verticalAlign=middle;whiteSpace=wrap;rounded=0;" parent="1" vertex="1">
          <mxGeometry x="495" y="510" width="40" height="20" as="geometry" />
        </mxCell>
        <mxCell id="M7p2KPYp7pXhIXxXzcYj-158" value="" style="endArrow=classic;html=1;fillColor=#aa00ff;strokeColor=#7700CC;" parent="1" edge="1">
          <mxGeometry width="50" height="50" relative="1" as="geometry">
            <mxPoint x="210" y="560" as="sourcePoint" />
            <mxPoint x="670" y="560" as="targetPoint" />
          </mxGeometry>
        </mxCell>
        <mxCell id="M7p2KPYp7pXhIXxXzcYj-159" value="0x80" style="text;html=1;strokeColor=none;fillColor=none;align=center;verticalAlign=middle;whiteSpace=wrap;rounded=0;" parent="1" vertex="1">
          <mxGeometry x="411.5" y="540" width="40" height="20" as="geometry" />
        </mxCell>
        <mxCell id="M7p2KPYp7pXhIXxXzcYj-160" value="" style="endArrow=classic;html=1;fillColor=#ffe6cc;strokeColor=#d79b00;" parent="1" edge="1">
          <mxGeometry width="50" height="50" relative="1" as="geometry">
            <mxPoint x="668" y="590" as="sourcePoint" />
            <mxPoint x="348" y="590" as="targetPoint" />
          </mxGeometry>
        </mxCell>
        <mxCell id="M7p2KPYp7pXhIXxXzcYj-161" value="CHILDREADY" style="text;html=1;strokeColor=none;fillColor=none;align=center;verticalAlign=middle;whiteSpace=wrap;rounded=0;" parent="1" vertex="1">
          <mxGeometry x="500" y="570" width="40" height="20" as="geometry" />
        </mxCell>
        <mxCell id="M7p2KPYp7pXhIXxXzcYj-162" value="" style="fillColor=#CC4125;strokeColor=#660000" parent="1" vertex="1">
          <mxGeometry x="667.5" y="386" width="10" height="257" as="geometry" />
        </mxCell>
        <mxCell id="M7p2KPYp7pXhIXxXzcYj-163" value="" style="edgeStyle=none;endArrow=none;dashed=1" parent="1" source="22" target="M7p2KPYp7pXhIXxXzcYj-162" edge="1">
          <mxGeometry x="614.4878472222224" y="174.99999999999997" width="100" height="100" as="geometry">
            <mxPoint x="672.6488095238096" y="325" as="sourcePoint" />
            <mxPoint x="675" y="720" as="targetPoint" />
          </mxGeometry>
        </mxCell>
        <mxCell id="M7p2KPYp7pXhIXxXzcYj-164" value="" style="endArrow=classic;html=1;fillColor=#aa00ff;strokeColor=#7700CC;" parent="1" edge="1">
          <mxGeometry width="50" height="50" relative="1" as="geometry">
            <mxPoint x="210" y="659" as="sourcePoint" />
            <mxPoint x="670" y="659" as="targetPoint" />
          </mxGeometry>
        </mxCell>
        <mxCell id="M7p2KPYp7pXhIXxXzcYj-165" value="config" style="text;html=1;strokeColor=none;fillColor=none;align=center;verticalAlign=middle;whiteSpace=wrap;rounded=0;" parent="1" vertex="1">
          <mxGeometry x="411.5" y="640" width="40" height="20" as="geometry" />
        </mxCell>
        <mxCell id="M7p2KPYp7pXhIXxXzcYj-166" value="" style="endArrow=classic;html=1;fillColor=#aa00ff;strokeColor=#7700CC;" parent="1" edge="1">
          <mxGeometry width="50" height="50" relative="1" as="geometry">
            <mxPoint x="670" y="700" as="sourcePoint" />
            <mxPoint x="210" y="700" as="targetPoint" />
          </mxGeometry>
        </mxCell>
        <mxCell id="M7p2KPYp7pXhIXxXzcYj-167" value="&quot;procHooks&quot;" style="text;html=1;strokeColor=none;fillColor=none;align=center;verticalAlign=middle;whiteSpace=wrap;rounded=0;" parent="1" vertex="1">
          <mxGeometry x="411" y="680" width="40" height="20" as="geometry" />
        </mxCell>
        <mxCell id="M7p2KPYp7pXhIXxXzcYj-168" value="" style="endArrow=classic;html=1;fillColor=#aa00ff;strokeColor=#7700CC;" parent="1" edge="1">
          <mxGeometry width="50" height="50" relative="1" as="geometry">
            <mxPoint x="212.5" y="740" as="sourcePoint" />
            <mxPoint x="672.5" y="740" as="targetPoint" />
          </mxGeometry>
        </mxCell>
        <mxCell id="M7p2KPYp7pXhIXxXzcYj-169" value="&quot;procResume&quot;" style="text;html=1;strokeColor=none;fillColor=none;align=center;verticalAlign=middle;whiteSpace=wrap;rounded=0;" parent="1" vertex="1">
          <mxGeometry x="411" y="720" width="40" height="20" as="geometry" />
        </mxCell>
        <mxCell id="M7p2KPYp7pXhIXxXzcYj-170" value="" style="endArrow=classic;html=1;fillColor=#aa00ff;strokeColor=#7700CC;" parent="1" edge="1">
          <mxGeometry width="50" height="50" relative="1" as="geometry">
            <mxPoint x="668" y="780" as="sourcePoint" />
            <mxPoint x="208" y="780" as="targetPoint" />
          </mxGeometry>
        </mxCell>
        <mxCell id="M7p2KPYp7pXhIXxXzcYj-171" value="&quot;procReady&quot;" style="text;html=1;strokeColor=none;fillColor=none;align=center;verticalAlign=middle;whiteSpace=wrap;rounded=0;" parent="1" vertex="1">
          <mxGeometry x="411.5" y="760" width="40" height="20" as="geometry" />
        </mxCell>
        <mxCell id="M7p2KPYp7pXhIXxXzcYj-172" value="" style="endArrow=classic;html=1;fillColor=#aa00ff;strokeColor=#7700CC;" parent="1" edge="1">
          <mxGeometry width="50" height="50" relative="1" as="geometry">
            <mxPoint x="208" y="820" as="sourcePoint" />
            <mxPoint x="668" y="820" as="targetPoint" />
          </mxGeometry>
        </mxCell>
        <mxCell id="M7p2KPYp7pXhIXxXzcYj-173" value="&quot;procRun&quot;" style="text;html=1;strokeColor=none;fillColor=none;align=center;verticalAlign=middle;whiteSpace=wrap;rounded=0;" parent="1" vertex="1">
          <mxGeometry x="411.5" y="800" width="40" height="20" as="geometry" />
        </mxCell>
        <mxCell id="M7p2KPYp7pXhIXxXzcYj-174" value="runc start" style="shadow=1;fillColor=#A2C4C9;strokeColor=none" parent="1" vertex="1">
          <mxGeometry x="30" y="760" width="105" height="50" as="geometry" />
        </mxCell>
        <mxCell id="M7p2KPYp7pXhIXxXzcYj-175" value="" style="edgeStyle=none;dashed=1;endArrow=none" parent="1" edge="1">
          <mxGeometry x="-72.5" y="980" width="100" height="100" as="geometry">
            <mxPoint x="82.5" y="810" as="sourcePoint" />
            <mxPoint x="83" y="920" as="targetPoint" />
          </mxGeometry>
        </mxCell>
        <mxCell id="M7p2KPYp7pXhIXxXzcYj-176" value="" style="endArrow=classic;html=1;fillColor=#60a917;strokeColor=#2D7600;" parent="1" edge="1">
          <mxGeometry width="50" height="50" relative="1" as="geometry">
            <mxPoint x="673" y="880" as="sourcePoint" />
            <mxPoint x="83" y="880" as="targetPoint" />
          </mxGeometry>
        </mxCell>
        <mxCell id="M7p2KPYp7pXhIXxXzcYj-177" value="&quot;0&quot;" style="text;html=1;strokeColor=none;fillColor=none;align=center;verticalAlign=middle;whiteSpace=wrap;rounded=0;" parent="1" vertex="1">
          <mxGeometry x="380.5" y="860" width="40" height="20" as="geometry" />
        </mxCell>
        <mxCell id="bHHnmka72U57fHlDasfd-53" value="execve(&quot;user cmd&quot;, ...)" style="rounded=1;whiteSpace=wrap;html=1;" parent="1" vertex="1">
          <mxGeometry x="606" y="890" width="133" height="30" as="geometry" />
        </mxCell>
        <mxCell id="WARIsVjhKI-jogwmUTJz-55" value="" style="fillColor=#CC4125;strokeColor=#660000" vertex="1" parent="1">
          <mxGeometry x="667.5" y="660" width="10" height="40" as="geometry" />
        </mxCell>
        <mxCell id="WARIsVjhKI-jogwmUTJz-56" value="" style="edgeStyle=none;endArrow=none;dashed=1" edge="1" parent="1" source="M7p2KPYp7pXhIXxXzcYj-162" target="WARIsVjhKI-jogwmUTJz-55">
          <mxGeometry x="614.4878472222224" y="174.99999999999997" width="100" height="100" as="geometry">
            <mxPoint x="673.3333333333335" y="643" as="sourcePoint" />
            <mxPoint x="675" y="900" as="targetPoint" />
          </mxGeometry>
        </mxCell>
        <mxCell id="WARIsVjhKI-jogwmUTJz-59" value="prepareRoot" style="text;html=1;strokeColor=none;fillColor=none;align=center;verticalAlign=middle;whiteSpace=wrap;rounded=0;" vertex="1" parent="1">
          <mxGeometry x="710" y="643" width="40" height="20" as="geometry" />
        </mxCell>
        <mxCell id="WARIsVjhKI-jogwmUTJz-60" value="" style="endArrow=classic;html=1;entryX=0;entryY=0;entryDx=0;entryDy=0;" edge="1" parent="1">
          <mxGeometry width="50" height="50" relative="1" as="geometry">
            <mxPoint x="677.5" y="663" as="sourcePoint" />
            <mxPoint x="777.5" y="663" as="targetPoint" />
          </mxGeometry>
        </mxCell>
        <mxCell id="WARIsVjhKI-jogwmUTJz-61" value="for each config.Mount:&amp;nbsp;&amp;nbsp;&lt;br&gt;apply mountToRoot( )" style="text;html=1;strokeColor=none;fillColor=none;align=center;verticalAlign=middle;whiteSpace=wrap;rounded=0;" vertex="1" parent="1">
          <mxGeometry x="750" y="669" width="211" height="20" as="geometry" />
        </mxCell>
        <mxCell id="WARIsVjhKI-jogwmUTJz-65" value="" style="shape=cross;whiteSpace=wrap;html=1;size=0.12626906806903548;rotation=-45;strokeColor=#b85450;fillColor=#FF0000;" vertex="1" parent="1">
          <mxGeometry x="980" y="720" width="40" height="40" as="geometry" />
        </mxCell>
        <mxCell id="WARIsVjhKI-jogwmUTJz-68" value="" style="fillColor=#CC4125;strokeColor=#660000" vertex="1" parent="1">
          <mxGeometry x="777" y="659" width="10" height="41" as="geometry" />
        </mxCell>
        <mxCell id="WARIsVjhKI-jogwmUTJz-70" value="" style="endArrow=classic;html=1;exitX=0.5;exitY=1;exitDx=0;exitDy=0;" edge="1" parent="1" source="WARIsVjhKI-jogwmUTJz-61">
          <mxGeometry width="50" height="50" relative="1" as="geometry">
            <mxPoint x="770" y="650" as="sourcePoint" />
            <mxPoint x="990" y="740" as="targetPoint" />
            <Array as="points">
              <mxPoint x="856" y="740" />
            </Array>
          </mxGeometry>
        </mxCell>
        <mxCell id="WARIsVjhKI-jogwmUTJz-71" value="mount --bind -t cosfs ..." style="text;html=1;strokeColor=none;fillColor=none;align=center;verticalAlign=middle;whiteSpace=wrap;rounded=0;" vertex="1" parent="1">
          <mxGeometry x="870" y="720" width="130" height="20" as="geometry" />
        </mxCell>
      </root>
    </mxGraphModel>
  </diagram>
</mxfile>
